<svg xmlns="http://www.w3.org/2000/svg" viewBox="0 0 24 24">
<g fill="none" stroke="currentColor" stroke-linecap="round" stroke-linejoin="round" stroke-width="1.5">
<path d="M20.51 9.54a1.9 1.9 0 0 1-1 1.09A7 7 0 0 0 15.37 17q.002.707.14 1.4a2.16 2.16 0 0 1-.31 1.65a1.8 1.8 0 0 1-1.21.8q-.804.15-1.62.15a9 9 0 0 1-9-9.28A9.05 9.05 0 0 1 11.85 3h.51a9 9 0 0 1 8.06 5a2 2 0 0 1 .09 1.52z" />
<path stroke-linecap="round" stroke-linejoin="round" d="m8 16.01l.01-.011M6 12.01l.01-.011M8 8.01l.01-.011M12 6.01l.01-.011M16 8.01l.01-.011" />
		<path d="M10 9.5h4l-2 8" />
</g>
</svg>
