<svg xmlns="http://www.w3.org/2000/svg" viewBox="0 0 24 24">
<g fill="none" stroke="currentColor" stroke-linecap="round" stroke-linejoin="round" stroke-width="1.5">
<path d="M10.75 13a1 1 0 0 1 1-1h1.5a1 1 0 0 1 1 1v1.5a1 1 0 0 1-1 1h-1.5h1.5a1 1 0 0 1 1 1v1.5a1 1 0 0 1-1 1h-1.5a1 1 0 0 1-1-1"/> 
<path d="M18 21h-8a4 4 0 0 1-4-4a7 7 0 0 1 7-7h.2L9.6 6.4a1 1 0 1 1 2.8-2.8L15.8 7h.2c3.3 0 6 2.7 6 6v1a2 2 0 0 1-2 2h-1a3 3 0 0 0-3 3" />
<path d="M20 8.54V4a2 2 0 1 0-4 0v3m-8.388 5.524a3 3 0 1 0-1.6 4.3" />
<path d="M18 12h.01" />
</g>
</svg>
